<svg width="184" height="40" viewBox="0 0 184 40" fill="none" xmlns="http://www.w3.org/2000/svg">
<path d="M34.1422 5.85781C30.3647 2.08031 25.3422 0 20 0C14.6578 0 9.63531 2.08031 5.85781 5.85781C2.08031 9.63531 0 14.6578 0 20C0 25.3422 2.08039 30.3646 5.85781 34.1422C9.63523 37.9198 14.6578 40 20 40C25.3422 40 30.3647 37.9197 34.1422 34.1422C37.9197 30.3647 40 25.3422 40 20C40 14.6578 37.9196 9.63539 34.1422 5.85781Z" fill="#33CC95"/>
<g clip-path="url(#clip0_1_47)">
<path d="M20.5714 8V33.1429" stroke="white" stroke-width="2" stroke-linecap="round" stroke-linejoin="round"/>
<path d="M26.2857 12.5714H17.7142C16.6534 12.5714 15.636 12.9929 14.8858 13.743C14.1357 14.4932 13.7142 15.5106 13.7142 16.5714C13.7142 17.6323 14.1357 18.6497 14.8858 19.3999C15.636 20.15 16.6534 20.5714 17.7142 20.5714H23.4285C24.4894 20.5714 25.5068 20.9929 26.2569 21.743C27.0071 22.4932 27.4285 23.5106 27.4285 24.5714C27.4285 25.6323 27.0071 26.6497 26.2569 27.3999C25.5068 28.15 24.4894 28.5714 23.4285 28.5714H13.7142" stroke="white" stroke-width="2" stroke-linecap="round" stroke-linejoin="round"/>
</g>
<g clip-path="url(#clip1_1_47)" filter="url(#filter0_i_1_47)">
<rect width="138" height="24" transform="translate(46 9)" fill="black"/>
<path d="M46 21V33H115H184V21V9H115H46V21ZM53.6384 20.7647V26.8824H58.2214C62.7535 26.8824 62.8044 26.8824 62.8044 28.0588V29.2353H57.203H51.6015V21.9412C51.6015 14.9765 51.6524 14.6471 52.6199 14.6471C53.5875 14.6471 53.6384 14.9765 53.6384 20.7647ZM71.1557 15.6353C73.0399 17 73.0399 19.8235 71.1557 21.1882C69.5771 22.3176 69.9336 23.1176 72.0214 23.1176C73.3963 23.1176 73.4982 23.2588 73.4982 24.8588C73.4982 25.8 73.8546 26.9294 74.262 27.3529C74.9749 28.0588 74.9749 28.2 74.262 28.7647C73.6 29.2824 73.2945 29.2824 72.6834 28.6706C71.9705 28.0118 71.7159 28.0118 70.3919 28.6235C66.369 30.4588 62.0406 25.7059 64.6376 22.2706C65.2487 21.4235 65.2996 20.9059 64.8923 19.7765C64.2812 18.0824 64.8413 16.4353 66.4708 15.4C67.9985 14.3647 69.5262 14.4588 71.1557 15.6353ZM90.4554 21.6588C92.645 25.4706 94.3764 28.7647 94.3764 28.9529C94.3764 29.0941 93.9181 29.2353 93.3579 29.2353C92.645 29.2353 91.8303 28.4353 90.7609 26.6471L89.1823 24.0588H85.2613H81.3402L79.9653 26.6471C78.9978 28.4824 78.3358 29.2353 77.572 29.2353C77.0118 29.2353 76.5535 29 76.5535 28.7647C76.5535 28.4824 78.2849 25.2353 80.4236 21.4706C85.5159 12.4353 85.3122 12.4353 90.4554 21.6588ZM107.107 20.5765C109.806 25.3294 110.519 26.3176 110.977 25.7059C111.283 25.3294 112.861 22.6941 114.491 19.8235C116.986 15.4941 117.699 14.6471 118.666 14.6471H119.889L119.736 21.8C119.583 28.6235 119.532 29 118.565 29C117.648 29 117.546 28.6235 117.292 24.3882L117.037 19.7765L114.287 24.5294C110.773 30.7412 110.417 30.6941 106.598 24.1059L103.797 19.1647L103.644 24.2C103.542 28.8588 103.441 29.2353 102.524 29.2353C101.556 29.2353 101.506 28.8588 101.506 21.9412C101.506 14.6941 101.506 14.6471 102.677 14.6471C103.593 14.6471 104.357 15.6824 107.107 20.5765ZM132.11 15.6824C134.3 16.8118 136.133 19.6824 136.133 21.9882C136.133 25.4706 132.517 28.7647 128.698 28.7647C125.948 28.7647 124.523 28.2471 122.791 26.6471C116.579 20.9059 124.472 11.6824 132.11 15.6824ZM144.026 19.9647L149.118 25.1412L149.271 19.9176C149.424 14.6471 149.424 14.6471 150.697 14.6471H151.97L151.817 21.8C151.664 27.8706 151.562 29 150.849 29.1412C150.391 29.2353 147.845 26.9765 144.484 23.5412L138.934 17.8L138.781 23.5412C138.679 28.8588 138.577 29.2353 137.661 29.2353C136.693 29.2353 136.642 28.9059 136.642 21.9412C136.642 14.6941 136.642 14.6471 137.813 14.6941C138.577 14.6941 140.563 16.3882 144.026 19.9647ZM165.159 15.5882C165.159 16.4824 164.802 16.5294 160.066 16.5294H154.974V18.6471V20.7647H160.066C164.802 20.7647 165.159 20.8118 165.159 21.7059C165.159 22.6 164.802 22.6471 160.066 22.6471H154.974V24.7647V26.8824H160.117C165.108 26.8824 165.21 26.8824 165.057 27.9176C164.904 28.9529 164.7 29 158.946 29.1412L152.937 29.2824V21.9412V14.6471H159.048C164.802 14.6471 165.159 14.6941 165.159 15.5882ZM170.404 17C171.473 18.2706 172.492 19.3529 172.746 19.3529C173.001 19.3529 174.07 18.3176 175.139 17C176.667 15.1647 177.38 14.6471 178.5 14.6471C179.926 14.6471 179.926 14.6471 176.871 18.2235L173.815 21.8471V25.5176C173.815 28.9059 173.714 29.2353 172.797 29.2353C171.88 29.2353 171.779 28.9059 171.779 25.6118V21.9882L168.723 18.3176L165.617 14.6471H167.043C168.214 14.6471 168.927 15.1647 170.404 17Z" fill="white" fill-opacity="0.95"/>
<path d="M67.1328 17.4706C66.5218 18.4118 67.4384 19.8235 68.6605 19.8235C69.9336 19.8235 70.5956 18.8353 70.1373 17.7059C69.7808 16.9059 67.6421 16.7647 67.1328 17.4706Z" fill="white" fill-opacity="0.95"/>
<path d="M66.369 23.5412C65.6052 24.9529 66.8782 26.8824 68.6605 26.8824C70.4937 26.8824 70.4937 26.3647 68.6605 24.3412C67.031 22.5059 66.9801 22.5059 66.369 23.5412Z" fill="white" fill-opacity="0.95"/>
<path d="M84.0391 19.3529L82.6133 21.7059H85.1594C86.5852 21.7059 87.7565 21.5647 87.7565 21.3294C87.7055 21.1412 87.1963 20.1059 86.5852 19.0235L85.4649 17L84.0391 19.3529Z" fill="white" fill-opacity="0.95"/>
<path d="M126.152 17C124.268 17.7059 122.893 19.7765 122.893 21.8941C122.944 27.5412 131.244 28.8588 133.587 23.5882C135.42 19.4941 130.684 15.3059 126.152 17Z" fill="white" fill-opacity="0.95"/>
</g>
<defs>
<filter id="filter0_i_1_47" x="46" y="9" width="138" height="28" filterUnits="userSpaceOnUse" color-interpolation-filters="sRGB">
<feFlood flood-opacity="0" result="BackgroundImageFix"/>
<feBlend mode="normal" in="SourceGraphic" in2="BackgroundImageFix" result="shape"/>
<feColorMatrix in="SourceAlpha" type="matrix" values="0 0 0 0 0 0 0 0 0 0 0 0 0 0 0 0 0 0 127 0" result="hardAlpha"/>
<feOffset dy="4"/>
<feGaussianBlur stdDeviation="2"/>
<feComposite in2="hardAlpha" operator="arithmetic" k2="-1" k3="1"/>
<feColorMatrix type="matrix" values="0 0 0 0 0 0 0 0 0 0 0 0 0 0 0 0 0 0 0.25 0"/>
<feBlend mode="normal" in2="shape" result="effect1_innerShadow_1_47"/>
</filter>
<clipPath id="clip0_1_47">
<rect width="27.4286" height="27.4286" fill="white" transform="translate(6.85712 6.85715)"/>
</clipPath>
<clipPath id="clip1_1_47">
<rect width="138" height="24" fill="white" transform="translate(46 9)"/>
</clipPath>
</defs>
</svg>
